<?xml version="1.0" encoding="UTF-8" standalone="no"?>
<!-- Created using Krita: https://krita.org -->

<svg
   width="616.7558pt"
   height="471.88251pt"
   viewBox="0 0 616.75581 471.88251"
   version="1.1"
   id="svg2547"
   sodipodi:docname="USTA-grand.svg"
   inkscape:version="1.2 (dc2aedaf03, 2022-05-15)"
   inkscape:export-filename="..\..\05-11 Website\og-image pre.png"
   inkscape:export-xdpi="140.08786"
   inkscape:export-ydpi="140.08786"
   xmlns:inkscape="http://www.inkscape.org/namespaces/inkscape"
   xmlns:sodipodi="http://sodipodi.sourceforge.net/DTD/sodipodi-0.dtd"
   xmlns="http://www.w3.org/2000/svg"
   xmlns:svg="http://www.w3.org/2000/svg">
  <sodipodi:namedview
     id="namedview50"
     pagecolor="#ffffff"
     bordercolor="#000000"
     borderopacity="0.25"
     inkscape:showpageshadow="2"
     inkscape:pageopacity="0.0"
     inkscape:pagecheckerboard="0"
     inkscape:deskcolor="#d1d1d1"
     inkscape:document-units="pt"
     showgrid="false"
     inkscape:zoom="1.8568938"
     inkscape:cx="358.93275"
     inkscape:cy="358.12495"
     inkscape:window-width="3840"
     inkscape:window-height="2050"
     inkscape:window-x="-12"
     inkscape:window-y="-12"
     inkscape:window-maximized="1"
     inkscape:current-layer="svg2547" />
  <defs
     id="defs2519" />
  <g
     aria-label="USTA"
     id="shape0"
     style="font-size:100px;font-family:'Faster One';letter-spacing:13;word-spacing:0;fill:#fe0000;stroke:#000000;stroke-width:0;stroke-linecap:square;stroke-linejoin:bevel;stroke-opacity:0"
     inkscape:label="USTA">
    <path
       d="m 149.93718,34.161983 -42.4,-4.5 h 43.2 z m -1.7,9.6 -42.3,-4.5 h 43.1 z m 5.1,-28.8 -42.3,-4.5 h 43.1 z m -44,5.1 h 43.1 l -0.8,4.5 z m 38,28.8 q -0.4,3.3 -0.5,4.5 l -42.3,-4.5 z m -0.7,9.6 q 0,2.4 0.3,4.5 l -42.3,-4.5 z m 1.7,9.7 q 1.3,2.8 3.2,4.5 l -42.3,-4.5 z m 26.4,-10.8 q 3.5,0 5,-0.9 1.5,-1 2.1,-4.4 l 7.4,-41.6 h 19 l -6.2,35.1 q -1.5,8.5 -3.5,13.7 -1.9,5.2 -5.4,8.8 -3.5,3.6 -8.7,5 -5.1,1.4 -13,1.4 -12.1,0 -17,-3.6 -4.8,-3.7 -4.8,-12.6 0,-4.9 1.4,-12.7 l 6.2,-35.1 h 19 l -8.3,46.9 z"
       id="path343" />
    <path
       d="m 246.33709,34.161983 -42.4,-4.5 h 43.1 q -0.5,2 -0.7,4.5 z m 3.4,-14.1 -1.5,4.4 -41.5,-4.4 z m -3.4,19.2 q 0.2,2.7 0.8,4.5 l -42.3,-4.5 z m 14,14.1 -52.9,-4.5 h 43.1 q 3.3,3.2 9.8,4.5 z m -3.1,-42.9 q -2.3,1.5 -4.4,4.1 l -38.6,-4.1 z m -51.5,48 h 37.4 l -1.5,4.4 z m -1.7,9.7 h 35.9 l -1.5,4.4 z m 43.4,-12.8 q 8.4,2.3 15.3,2.3 7,0 11.4,-0.6 l 0.8,-5 -8.3,-0.8 q -9.5,-0.9 -13.5,-4.3 -3.9,-3.4 -3.9,-9.6 0,-2.7 0.6,-6 2.3,-12.8 8.4,-17.6 6.1,-4.8000003 18.7,-4.8000003 12.7,0 22.4,2.5000003 l -5.2,16 q -8.7,-1.5 -14,-1.5 -5.2,0 -9,0.5 l -0.8,4.9 6.7,0.7 q 10.2,1.1 14.5,4.9 4.3,3.7 4.3,10 0,6.4 -2.7,13.2 -1.5,3.5 -3.2,5.9 -1.6,2.3 -4.2,4 -2.5,1.6 -4.6,2.5 -2.1,0.8 -5.4,1.2 -4.6,0.7 -11.4,0.7 -12.4,0 -22.5,-2.6 z"
       id="path345" />
    <path
       d="m 386.93713,26.461983 h -13.8 l -8.1,46.5 h -19 l 8.1,-46.5 h -13.7 l 2.9,-16 h 46.5 z m -44,46.2 -42.4,-4.5 h 43.2 z m 3.4,-19.3 -42.4,-4.5 h 43.2 z m 1.7,-9.6 -42.4,-4.5 h 43.2 z m 1.7,-9.6 -42.4,-4.5 h 43.2 z m -5.1,28.8 -42.4,-4.5 h 43.2 z m -6.9,-38.4 -42.4,-4.5 h 43.1 z m 1.6,-9.6 -42.3,-4.5 h 43.1 z"
       id="path347" />
    <path
       d="m 434.73708,72.961983 h -20 l 26.3,-62.5 h 29.4 l 4.4,62.5 h -20.1 l -0.4,-9.9 h -15.7 z m 18.1,-25.8 v -17.5 h -1 l -7,17.5 z m -41.3,25.4 -41,-4.4 h 42.9 z m 4.1,-9.7 -41,-4.4 h 42.9 z m 4.1,-9.6 -41,-4.4 h 42.8 z m 4,-9.6 -40.9,-4.4 h 42.8 z m 4.1,-9.6 -40.9,-4.4 h 42.7 z m 8.1,-19.3 -40.8,-4.3 h 42.6 z m -4.1,9.6 -40.8,-4.3 h 42.6 z m 4.1,-9.6 1.8,-4.3 h -42.6 z"
       id="path349" />
  </g>
  <g
     aria-label="SERVICE"
     transform="rotate(-24.391617)"
     id="text2529"
     style="font-weight:600;font-size:50px;font-family:'Yanone Kaffeesatz SemiBold';letter-spacing:0;word-spacing:0;fill:#0c1057;stroke:#000000;stroke-width:0;stroke-linecap:square;stroke-linejoin:bevel;stroke-opacity:0"
     inkscape:label="Service">
    <path
       d="m 117.00168,548.4024 q -3.35,0 -4.95,-1 -1.6,-1.05 -1.6,-2.35 0,-0.85 0.3,-1.95 0.3,-1.15 0.95,-2.1 0.8,0.7 2.05,1.2 1.25,0.45 2.6,0.45 2.05,0 2.85,-1.05 0.8,-1.05 0.8,-2.8 0,-1.3 -0.5,-2.45 -0.45,-1.15 -1.75,-2.85 l -4.55,-6.1 q -1.7,-2.3 -2.25,-4 -0.55,-1.7 -0.55,-3.35 0,-3.4 2.25,-5.5 2.25,-2.15 6.65,-2.15 3.8,0 5.3,0.75 1.5,0.75 1.5,2.05 0,0.7 -0.3,1.55 -0.3,0.8 -1,1.6 -0.4,-0.3 -1.65,-0.65 -1.25,-0.35 -2.7,-0.35 -1.85,0 -2.9,0.65 -1.05,0.6 -1.05,1.9 0,1.15 0.4,2.15 0.45,0.95 1.4,2.3 l 4.8,6.15 q 1.8,2.3 2.4,4.15 0.6,1.85 0.6,4 0,2.5 -0.8,4.75 -0.75,2.2 -2.7,3.6 -1.95,1.4 -5.6,1.4 z"
       style="font-weight:bold;font-family:'Yanone Kaffeesatz';-inkscape-font-specification:'Yanone Kaffeesatz Bold'"
       id="path396" />
    <path
       d="m 128.35167,547.9024 v -34 q 0,0 0.15,-0.5 0.15,-0.5 0.85,-0.5 h 12 q 0,2.25 -0.05,3.3 -0.05,1.05 -0.25,1.4 -0.2,0.3 -0.7,0.3 h -6.4 v 25 h 7.05 q 0,2.35 -0.05,3.4 -0.05,1.05 -0.25,1.35 -0.2,0.25 -0.7,0.25 z m 0.4,-16.4 v -5.1 h 11.25 q 0,3.15 -0.15,4.15 -0.1,0.95 -0.8,0.95 z"
       style="font-weight:bold;font-family:'Yanone Kaffeesatz';-inkscape-font-specification:'Yanone Kaffeesatz Bold'"
       id="path398" />
    <path
       d="m 145.00163,534.4024 q -0.85,0 -1,-0.3 -0.15,-0.3 -0.15,-1.1 v -19.1 q 0,0 0.05,-0.5 0.05,-0.5 0.85,-0.5 h 4.3 q 3.15,0 5.3,0.9 2.2,0.85 3.3,3.1 1.15,2.2 1.15,6.3 0,3.4 -0.85,5.6 -0.8,2.15 -2.2,3.4 -1.35,1.2 -3.05,1.7 -1.65,0.5 -3.4,0.5 z m -1.65,13.5 v -34 q 0,0 0.1,-0.5 0.15,-0.5 0.9,-0.5 h 3.6 q 0.75,0 0.85,0.5 0.15,0.5 0.15,0.5 v 33 q 0,0.5 -0.25,0.7 -0.25,0.2 -1.45,0.25 -1.15,0.05 -3.9,0.05 z m 13.35,0.15 q -0.65,0 -1.5,-0.05 -0.85,-0.05 -1.8,-0.1 -0.1,-4.4 -0.75,-7.25 -0.65,-2.9 -1.5,-4.5 -0.8,-1.65 -1.45,-2.3 -0.6,-0.7 -0.6,-0.7 0,0 -0.15,-0.35 -0.15,-0.35 0.5,-0.7 l 3.15,-1.8 q 0.8,0 1.05,0.55 0,0 0.85,0.85 0.85,0.8 1.95,2.7 1.15,1.85 2.05,4.9 0.95,3.05 1.1,7.5 0,0.7 -0.45,1 -0.4,0.25 -2.45,0.25 z m -7.75,-18.8 h 1 q 0.8,0 1.35,-0.5 0.55,-0.5 0.85,-1.85 0.35,-1.4 0.35,-4 0,-1.8 -0.25,-2.95 -0.2,-1.15 -0.7,-1.65 -0.45,-0.55 -1.25,-0.55 h -1.35 z"
       style="font-weight:bold;font-family:'Yanone Kaffeesatz';-inkscape-font-specification:'Yanone Kaffeesatz Bold'"
       id="path400" />
    <path
       d="m 168.3516,548.2024 q -1.4,0 -2.15,-0.85 -0.75,-0.85 -1,-2.1 -0.45,-2 -1.05,-5 -0.55,-3.05 -1.2,-6.5 -0.65,-3.5 -1.3,-6.9 -0.6,-3.45 -1.1,-6.25 -0.5,-2.85 -0.8,-4.55 -0.3,-1.7 -0.3,-1.7 -0.15,-0.85 0,-1.15 0.15,-0.3 1.25,-0.3 h 4.7 l 2.5,16.3 q 0.4,2.45 0.7,5.1 0.35,2.65 0.65,5 0.3,2.35 0.5,4 0.15,-1.65 0.4,-4 0.25,-2.35 0.55,-5 0.35,-2.65 0.7,-5.1 l 2.15,-14.8 q 0.1,-0.8 0.35,-1.15 0.25,-0.35 1,-0.35 h 4.95 l -6.6,35 q -1.25,0.15 -2.3,0.2 -1,0.1 -2.6,0.1 z"
       style="font-weight:bold;font-family:'Yanone Kaffeesatz';-inkscape-font-specification:'Yanone Kaffeesatz Bold'"
       id="path402" />
    <path
       d="m 181.6016,547.9024 v -32.55 q 0,-1.25 0.25,-1.75 0.25,-0.5 1.45,-0.6 1.2,-0.1 4,-0.1 v 34 q 0,0.5 -0.25,0.7 -0.25,0.2 -1.45,0.25 -1.15,0.05 -4,0.05 z"
       style="font-weight:bold;font-family:'Yanone Kaffeesatz';-inkscape-font-specification:'Yanone Kaffeesatz Bold'"
       id="path404" />
    <path
       d="m 198.1516,548.4024 q -1.7,0 -3.05,-0.45 -1.35,-0.4 -2.35,-1.45 -1,-1.05 -1.65,-2.95 -0.65,-1.9 -1,-4.85 -0.3,-2.95 -0.3,-7.15 0,-4.9 0.6,-8.3 0.6,-3.4 1.6,-5.5 1.05,-2.15 2.35,-3.3 1.3,-1.2 2.7,-1.6 1.4,-0.45 2.75,-0.45 2.15,0 3.15,0.45 1,0.4 1.3,1.1 0.3,0.65 0.3,1.4 0,1 -0.25,1.9 -0.25,0.85 -0.55,1.5 -0.3,-0.25 -0.7,-0.4 -0.4,-0.2 -0.9,-0.3 -0.45,-0.15 -1,-0.15 -0.85,0 -1.65,0.35 -0.8,0.3 -1.5,1.15 -0.7,0.85 -1.2,2.35 -0.5,1.5 -0.8,3.8 -0.3,2.3 -0.3,5.55 0,3.25 0.2,5.4 0.25,2.15 0.7,3.4 0.45,1.2 1.2,1.75 0.75,0.5 1.8,0.5 1.15,0 2.15,-0.2 1.05,-0.2 1.75,-0.55 0.3,0.65 0.5,1.55 0.25,0.85 0.25,1.75 0,1.15 -0.75,2 -0.7,0.85 -2.1,1.25 -1.35,0.45 -3.25,0.45 z"
       style="font-weight:bold;font-family:'Yanone Kaffeesatz';-inkscape-font-specification:'Yanone Kaffeesatz Bold'"
       id="path406" />
    <path
       d="m 206.55163,547.9024 v -34 q 0,0 0.15,-0.5 0.15,-0.5 0.85,-0.5 h 12 q 0,2.25 -0.05,3.3 -0.05,1.05 -0.25,1.4 -0.2,0.3 -0.7,0.3 h -6.4 v 25 h 7.05 q 0,2.35 -0.05,3.4 -0.05,1.05 -0.25,1.35 -0.2,0.25 -0.7,0.25 z m 0.4,-16.4 v -5.1 h 11.25 q 0,3.15 -0.15,4.15 -0.1,0.95 -0.8,0.95 z"
       style="font-weight:bold;font-family:'Yanone Kaffeesatz';-inkscape-font-specification:'Yanone Kaffeesatz Bold'"
       id="path408" />
  </g>
  <g
     aria-label="US TRUCK ASSISTANCE"
     id="shape2"
     style="font-weight:600;font-size:91px;font-family:'Yanone Kaffeesatz SemiBold';letter-spacing:1.5;word-spacing:0;fill:#fe0000;stroke:#000000;stroke-width:0;stroke-linecap:square;stroke-linejoin:bevel;stroke-opacity:0"
     inkscape:label="US Truck Assistance"
     transform="translate(-0.43426818)">
    <path
       d="m 24.541765,184.58725 q -5.369,0 -8.645,-1.456 -3.185,-1.456 -4.914,-3.913 -1.6380003,-2.548 -2.1840003,-5.824 -0.546,-3.367 -0.546,-7.189 v -44.317 q 0,-1.001 0.455,-1.365 0.455,-0.364 2.6390003,-0.455 2.184,-0.091 7.462,-0.091 v 46.592 q 0,2.184 0.182,3.822 0.273,1.638 0.91,2.73 0.637,1.092 1.729,1.638 1.183,0.455 2.912,0.455 1.547,0 2.912,-0.273 1.456,-0.364 2.366,-0.819 v -52.234 q 0,-1.001 0.455,-1.365 0.455,-0.364 2.548,-0.455 2.184,-0.091 7.371,-0.091 v 61.152 q -1.638,1.092 -5.733,2.275 -4.095,1.183 -9.919,1.183 z"
       style="font-weight:bold;font-family:'Yanone Kaffeesatz';-inkscape-font-specification:'Yanone Kaffeesatz Bold'"
       id="path352" />
    <path
       d="m 57.800701,184.58725 q -6.097,0 -9.009,-1.82 -2.912,-1.911 -2.912,-4.277 0,-1.547 0.546,-3.549 0.546,-2.093 1.729,-3.822 1.456,1.274 3.731,2.184 2.275,0.819 4.732,0.819 3.731,0 5.187,-1.911 1.456,-1.911 1.456,-5.096 0,-2.366 -0.91,-4.459 -0.819,-2.093 -3.185,-5.187 l -8.281,-11.102 q -3.094,-4.186 -4.095,-7.28 -1.001,-3.094 -1.001,-6.097 0,-6.188 4.095,-10.01 4.095,-3.913 12.103,-3.913 6.916,0 9.646,1.365 2.73,1.365 2.73,3.731 0,1.274 -0.546,2.821 -0.546,1.456 -1.82,2.912 -0.728,-0.546 -3.003,-1.183 -2.275,-0.637 -4.914,-0.637 -3.367,0 -5.278,1.183 -1.911,1.092 -1.911,3.458 0,2.093 0.728,3.913 0.819,1.729 2.548,4.186 l 8.736,11.193 q 3.276,4.186 4.368,7.553 1.092,3.367 1.092,7.28 0,4.55 -1.456,8.645 -1.365,4.004 -4.914,6.552 -3.549,2.548 -10.192,2.548 z"
       style="font-weight:bold;font-family:'Yanone Kaffeesatz';-inkscape-font-specification:'Yanone Kaffeesatz Bold'"
       id="path354" />
    <path
       d="m 103.47963,183.67725 v -62.79 q 0,0 0.182,0 0.273,0 1.638,0 h 6.552 q 1.365,0 1.547,0 0.273,0 0.273,0 v 60.97 q 0,0.91 -0.455,1.274 -0.455,0.364 -2.639,0.455 -2.093,0.091 -7.098,0.091 z m -11.101995,-54.145 v -7.735 q 0,-1.82 1.82,-1.82 h 30.939995 v 7.735 q 0,1.092 -0.455,1.456 -0.364,0.364 -1.365,0.364 z"
       style="font-weight:bold;font-family:'Yanone Kaffeesatz';-inkscape-font-specification:'Yanone Kaffeesatz Bold'"
       id="path356" />
    <path
       d="m 133.28056,159.10725 q -1.547,0 -1.82,-0.546 -0.273,-0.546 -0.273,-2.002 v -34.762 q 0,0 0.091,-0.91 0.091,-0.91 1.547,-0.91 h 7.826 q 5.733,0 9.646,1.638 4.004,1.547 6.006,5.642 2.093,4.004 2.093,11.466 0,6.188 -1.547,10.192 -1.456,3.913 -4.004,6.188 -2.457,2.184 -5.551,3.094 -3.003,0.91 -6.188,0.91 z m -3.003,24.57 v -61.88 q 0,0 0.182,-0.91 0.273,-0.91 1.638,-0.91 h 6.552 q 1.365,0 1.547,0.91 0.273,0.91 0.273,0.91 v 60.06 q 0,0.91 -0.455,1.274 -0.455,0.364 -2.639,0.455 -2.093,0.091 -7.098,0.091 z m 24.297,0.273 q -1.183,0 -2.73,-0.091 -1.547,-0.091 -3.276,-0.182 -0.182,-8.008 -1.365,-13.195 -1.183,-5.278 -2.73,-8.19 -1.456,-3.003 -2.639,-4.186 -1.092,-1.274 -1.092,-1.274 0,0 -0.273,-0.637 -0.273,-0.637 0.91,-1.274 l 5.733,-3.276 q 1.456,0 1.911,1.001 0,0 1.547,1.547 1.547,1.456 3.549,4.914 2.093,3.367 3.731,8.918 1.729,5.551 2.002,13.65 0,1.274 -0.819,1.82 -0.728,0.455 -4.459,0.455 z m -14.105,-34.216 h 1.82 q 1.456,0 2.457,-0.91 1.001,-0.91 1.547,-3.367 0.637,-2.548 0.637,-7.28 0,-3.276 -0.455,-5.369 -0.364,-2.093 -1.274,-3.003 -0.819,-1.001 -2.275,-1.001 h -2.457 z"
       style="font-weight:bold;font-family:'Yanone Kaffeesatz';-inkscape-font-specification:'Yanone Kaffeesatz Bold'"
       id="path358" />
    <path
       d="m 181.28154,184.58725 q -5.369,0 -8.645,-1.456 -3.185,-1.456 -4.914,-3.913 -1.638,-2.548 -2.184,-5.824 -0.546,-3.367 -0.546,-7.189 v -44.317 q 0,-1.001 0.455,-1.365 0.455,-0.364 2.639,-0.455 2.184,-0.091 7.462,-0.091 v 46.592 q 0,2.184 0.182,3.822 0.273,1.638 0.91,2.73 0.637,1.092 1.729,1.638 1.183,0.455 2.912,0.455 1.547,0 2.912,-0.273 1.456,-0.364 2.366,-0.819 v -52.234 q 0,-1.001 0.455,-1.365 0.455,-0.364 2.548,-0.455 2.184,-0.091 7.371,-0.091 v 61.152 q -1.638,1.092 -5.733,2.275 -4.095,1.183 -9.919,1.183 z"
       style="font-weight:bold;font-family:'Yanone Kaffeesatz';-inkscape-font-specification:'Yanone Kaffeesatz Bold'"
       id="path360" />
    <path
       d="m 218.18048,184.58725 q -3.094,0 -5.551,-0.819 -2.457,-0.728 -4.277,-2.639 -1.82,-1.911 -3.003,-5.369 -1.183,-3.458 -1.82,-8.827 -0.546,-5.369 -0.546,-13.013 0,-8.918 1.092,-15.106 1.092,-6.188 2.912,-10.01 1.911,-3.913 4.277,-6.006 2.366,-2.184 4.914,-2.912 2.548,-0.819 5.005,-0.819 3.913,0 5.733,0.819 1.82,0.728 2.366,2.002 0.546,1.183 0.546,2.548 0,1.82 -0.455,3.458 -0.455,1.547 -1.001,2.73 -0.546,-0.455 -1.274,-0.728 -0.728,-0.364 -1.638,-0.546 -0.819,-0.273 -1.82,-0.273 -1.547,0 -3.003,0.637 -1.456,0.546 -2.73,2.093 -1.274,1.547 -2.184,4.277 -0.91,2.73 -1.456,6.916 -0.546,4.186 -0.546,10.101 0,5.915 0.364,9.828 0.455,3.913 1.274,6.188 0.819,2.184 2.184,3.185 1.365,0.91 3.276,0.91 2.093,0 3.913,-0.364 1.911,-0.364 3.185,-1.001 0.546,1.183 0.91,2.821 0.455,1.547 0.455,3.185 0,2.093 -1.365,3.64 -1.274,1.547 -3.822,2.275 -2.457,0.819 -5.915,0.819 z"
       style="font-weight:bold;font-family:'Yanone Kaffeesatz';-inkscape-font-specification:'Yanone Kaffeesatz Bold'"
       id="path362" />
    <path
       d="m 261.17654,183.85925 q -1.729,0 -3.549,-0.091 -1.82,-0.091 -3.731,-0.182 0,-4.186 -0.273,-8.19 -0.182,-4.004 -0.819,-7.644 -0.546,-3.64 -1.82,-6.643 -1.183,-3.094 -3.094,-5.278 -1.001,-1.183 -2.366,-1.82 -1.274,-0.728 -2.548,-0.819 v -1.547 l 12.103,-31.031 q 1.82,-0.455 3.549,-0.546 1.729,-0.182 3.003,-0.182 5.369,0 4.368,2.548 l -10.374,24.752 q 5.005,4.641 7.371,13.559 2.457,8.918 2.457,21.021 0,1.183 -0.819,1.638 -0.728,0.455 -3.458,0.455 z m -26.39,-0.182 v -61.88 q 0,-0.91 0.455,-1.274 0.455,-0.364 2.548,-0.455 2.184,-0.091 7.371,-0.091 v 61.88 q 0,0.91 -0.455,1.274 -0.364,0.364 -2.548,0.455 -2.184,0.091 -7.371,0.091 z"
       style="font-weight:bold;font-family:'Yanone Kaffeesatz';-inkscape-font-specification:'Yanone Kaffeesatz Bold'"
       id="path364" />
    <path
       d="m 289.92953,183.85925 q -1.001,0 -2.821,-0.091 -1.82,-0.091 -3.64,-0.273 l 15.197,-61.789 q 0.364,-1.911 4.095,-1.911 1.274,0 2.548,0.091 1.365,0.091 2.275,0.273 l 15.197,61.88 q 0.182,0.91 -0.637,1.365 -0.819,0.455 -3.913,0.455 -1.001,0 -2.457,-0.091 -1.456,0 -3.458,-0.091 l -6.643,-32.123 q -0.455,-2.457 -0.91,-5.278 -0.455,-2.912 -0.819,-6.006 -0.364,-3.094 -0.637,-5.915 -0.273,2.821 -0.728,5.915 -0.364,3.094 -0.819,6.006 -0.364,2.821 -0.91,5.278 l -6.279,30.394 q -0.182,0.91 -0.91,1.456 -0.637,0.455 -3.731,0.455 z m 3.913,-14.651 v -9.191 h 20.566 v 9.191 z"
       style="font-weight:bold;font-family:'Yanone Kaffeesatz';-inkscape-font-specification:'Yanone Kaffeesatz Bold'"
       id="path366" />
    <path
       d="m 337.02052,184.58725 q -6.097,0 -9.009,-1.82 -2.912,-1.911 -2.912,-4.277 0,-1.547 0.546,-3.549 0.546,-2.093 1.729,-3.822 1.456,1.274 3.731,2.184 2.275,0.819 4.732,0.819 3.731,0 5.187,-1.911 1.456,-1.911 1.456,-5.096 0,-2.366 -0.91,-4.459 -0.819,-2.093 -3.185,-5.187 l -8.281,-11.102 q -3.094,-4.186 -4.095,-7.28 -1.001,-3.094 -1.001,-6.097 0,-6.188 4.095,-10.01 4.095,-3.913 12.103,-3.913 6.916,0 9.646,1.365 2.73,1.365 2.73,3.731 0,1.274 -0.546,2.821 -0.546,1.456 -1.82,2.912 -0.728,-0.546 -3.003,-1.183 -2.275,-0.637 -4.914,-0.637 -3.367,0 -5.278,1.183 -1.911,1.092 -1.911,3.458 0,2.093 0.728,3.913 0.819,1.729 2.548,4.186 l 8.736,11.193 q 3.276,4.186 4.368,7.553 1.092,3.367 1.092,7.28 0,4.55 -1.456,8.645 -1.365,4.004 -4.914,6.552 -3.549,2.548 -10.192,2.548 z"
       style="font-weight:bold;font-family:'Yanone Kaffeesatz';-inkscape-font-specification:'Yanone Kaffeesatz Bold'"
       id="path368" />
    <path
       d="m 369.82451,184.58725 q -6.097,0 -9.009,-1.82 -2.912,-1.911 -2.912,-4.277 0,-1.547 0.546,-3.549 0.546,-2.093 1.729,-3.822 1.456,1.274 3.731,2.184 2.275,0.819 4.732,0.819 3.731,0 5.187,-1.911 1.456,-1.911 1.456,-5.096 0,-2.366 -0.91,-4.459 -0.819,-2.093 -3.185,-5.187 l -8.281,-11.102 q -3.094,-4.186 -4.095,-7.28 -1.001,-3.094 -1.001,-6.097 0,-6.188 4.095,-10.01 4.095,-3.913 12.103,-3.913 6.916,0 9.646,1.365 2.73,1.365 2.73,3.731 0,1.274 -0.546,2.821 -0.546,1.456 -1.82,2.912 -0.728,-0.546 -3.003,-1.183 -2.275,-0.637 -4.914,-0.637 -3.367,0 -5.278,1.183 -1.911,1.092 -1.911,3.458 0,2.093 0.728,3.913 0.819,1.729 2.548,4.186 l 8.736,11.193 q 3.276,4.186 4.368,7.553 1.092,3.367 1.092,7.28 0,4.55 -1.456,8.645 -1.365,4.004 -4.914,6.552 -3.549,2.548 -10.192,2.548 z"
       style="font-weight:bold;font-family:'Yanone Kaffeesatz';-inkscape-font-specification:'Yanone Kaffeesatz Bold'"
       id="path370" />
    <path
       d="m 391.98152,183.67725 v -59.241 q 0,-2.275 0.455,-3.185 0.455,-0.91 2.639,-1.092 2.184,-0.182 7.28,-0.182 v 61.88 q 0,0.91 -0.455,1.274 -0.455,0.364 -2.639,0.455 -2.093,0.091 -7.28,0.091 z"
       style="font-weight:bold;font-family:'Yanone Kaffeesatz';-inkscape-font-specification:'Yanone Kaffeesatz Bold'"
       id="path372" />
    <path
       d="m 419.96248,184.58725 q -6.097,0 -9.009,-1.82 -2.912,-1.911 -2.912,-4.277 0,-1.547 0.546,-3.549 0.546,-2.093 1.729,-3.822 1.456,1.274 3.731,2.184 2.275,0.819 4.732,0.819 3.731,0 5.187,-1.911 1.456,-1.911 1.456,-5.096 0,-2.366 -0.91,-4.459 -0.819,-2.093 -3.185,-5.187 l -8.281,-11.102 q -3.094,-4.186 -4.095,-7.28 -1.001,-3.094 -1.001,-6.097 0,-6.188 4.095,-10.01 4.095,-3.913 12.103,-3.913 6.916,0 9.646,1.365 2.73,1.365 2.73,3.731 0,1.274 -0.546,2.821 -0.546,1.456 -1.82,2.912 -0.728,-0.546 -3.003,-1.183 -2.275,-0.637 -4.914,-0.637 -3.367,0 -5.278,1.183 -1.911,1.092 -1.911,3.458 0,2.093 0.728,3.913 0.819,1.729 2.548,4.186 l 8.736,11.193 q 3.276,4.186 4.368,7.553 1.092,3.367 1.092,7.28 0,4.55 -1.456,8.645 -1.365,4.004 -4.914,6.552 -3.549,2.548 -10.192,2.548 z"
       style="font-weight:bold;font-family:'Yanone Kaffeesatz';-inkscape-font-specification:'Yanone Kaffeesatz Bold'"
       id="path374" />
    <path
       d="m 451.40146,183.67725 v -62.79 q 0,0 0.182,0 0.273,0 1.638,0 h 6.552 q 1.365,0 1.547,0 0.273,0 0.273,0 v 60.97 q 0,0.91 -0.455,1.274 -0.455,0.364 -2.639,0.455 -2.093,0.091 -7.098,0.091 z m -11.102,-54.145 v -7.735 q 0,-1.82 1.82,-1.82 h 30.94 v 7.735 q 0,1.092 -0.455,1.456 -0.364,0.364 -1.365,0.364 z"
       style="font-weight:bold;font-family:'Yanone Kaffeesatz';-inkscape-font-specification:'Yanone Kaffeesatz Bold'"
       id="path376" />
    <path
       d="m 476.65246,183.85925 q -1.001,0 -2.821,-0.091 -1.82,-0.091 -3.64,-0.273 l 15.197,-61.789 q 0.364,-1.911 4.095,-1.911 1.274,0 2.548,0.091 1.365,0.091 2.275,0.273 l 15.197,61.88 q 0.182,0.91 -0.637,1.365 -0.819,0.455 -3.913,0.455 -1.001,0 -2.457,-0.091 -1.456,0 -3.458,-0.091 l -6.643,-32.123 q -0.455,-2.457 -0.91,-5.278 -0.455,-2.912 -0.819,-6.006 -0.364,-3.094 -0.637,-5.915 -0.273,2.821 -0.728,5.915 -0.364,3.094 -0.819,6.006 -0.364,2.821 -0.91,5.278 l -6.279,30.394 q -0.182,0.91 -0.91,1.456 -0.637,0.455 -3.731,0.455 z m 3.913,-14.651 v -9.191 h 20.566 v 9.191 z"
       style="font-weight:bold;font-family:'Yanone Kaffeesatz';-inkscape-font-specification:'Yanone Kaffeesatz Bold'"
       id="path378" />
    <path
       d="m 537.93949,183.67725 -9.646,-24.388 q -0.819,-2.184 -1.729,-5.005 -0.819,-2.821 -1.638,-5.915 -0.728,-3.094 -1.365,-6.006 -0.637,-2.912 -1.183,-5.278 -0.455,-2.366 -0.728,-3.731 -0.273,-1.456 -0.273,-1.456 l -6.006,-6.006 0.455,-5.915 h 8.099 l 9.464,23.933 q 0.91,2.366 1.82,5.369 0.91,2.912 1.638,6.006 0.819,3.003 1.456,5.824 0.637,2.821 1.092,5.096 0.455,2.275 0.728,3.64 0.273,1.274 0.273,1.274 l 6.188,6.643 -0.728,5.915 z m -23.933,0 v -61.88 q 0,-1.82 1.82,-1.82 l 8.372,1.82 -1.547,15.379 q 0.273,1.911 0.455,3.913 0.182,2.002 0.364,4.095 0.182,2.002 0.273,4.004 0.182,1.911 0.273,3.822 0.091,1.911 0.091,3.731 0.091,1.729 0.091,3.276 v 21.84 q 0,0.91 -0.455,1.274 -0.455,0.364 -2.548,0.455 -2.093,0.091 -7.189,0.091 z m 31.85,0 -8.372,-1.82 1.365,-17.472 q -0.273,-2.093 -0.455,-4.004 -0.182,-2.002 -0.364,-3.822 -0.091,-1.82 -0.273,-3.549 -0.091,-1.729 -0.182,-3.367 0,-1.729 -0.091,-3.367 0,-1.638 0,-3.276 v -21.203 q 0,-0.91 0.455,-1.274 0.455,-0.364 2.548,-0.455 2.184,-0.091 7.189,-0.091 v 61.88 q 0,1.82 -1.82,1.82 z"
       style="font-weight:bold;font-family:'Yanone Kaffeesatz';-inkscape-font-specification:'Yanone Kaffeesatz Bold'"
       id="path380" />
    <path
       d="m 568.92349,184.58725 q -3.094,0 -5.551,-0.819 -2.457,-0.728 -4.277,-2.639 -1.82,-1.911 -3.003,-5.369 -1.183,-3.458 -1.82,-8.827 -0.546,-5.369 -0.546,-13.013 0,-8.918 1.092,-15.106 1.092,-6.188 2.912,-10.01 1.911,-3.913 4.277,-6.006 2.366,-2.184 4.914,-2.912 2.548,-0.819 5.005,-0.819 3.913,0 5.733,0.819 1.82,0.728 2.366,2.002 0.546,1.183 0.546,2.548 0,1.82 -0.455,3.458 -0.455,1.547 -1.001,2.73 -0.546,-0.455 -1.274,-0.728 -0.728,-0.364 -1.638,-0.546 -0.819,-0.273 -1.82,-0.273 -1.547,0 -3.003,0.637 -1.456,0.546 -2.73,2.093 -1.274,1.547 -2.184,4.277 -0.91,2.73 -1.456,6.916 -0.546,4.186 -0.546,10.101 0,5.915 0.364,9.828 0.455,3.913 1.274,6.188 0.819,2.184 2.184,3.185 1.365,0.91 3.276,0.91 2.093,0 3.913,-0.364 1.911,-0.364 3.185,-1.001 0.546,1.183 0.91,2.821 0.455,1.547 0.455,3.185 0,2.093 -1.365,3.64 -1.274,1.547 -3.822,2.275 -2.457,0.819 -5.915,0.819 z"
       style="font-weight:bold;font-family:'Yanone Kaffeesatz';-inkscape-font-specification:'Yanone Kaffeesatz Bold'"
       id="path382" />
    <path
       d="m 585.71157,183.67725 v -61.88 q 0,0 0.273,-0.91 0.273,-0.91 1.547,-0.91 h 21.84 q 0,4.095 -0.091,6.006 -0.091,1.911 -0.455,2.548 -0.364,0.546 -1.274,0.546 h -11.648 v 45.5 h 12.831 q 0,4.277 -0.091,6.188 -0.091,1.911 -0.455,2.457 -0.364,0.455 -1.274,0.455 z m 0.728,-29.848 v -9.282 h 20.475 q 0,5.733 -0.273,7.553 -0.182,1.729 -1.456,1.729 z"
       style="font-weight:bold;font-family:'Yanone Kaffeesatz';-inkscape-font-specification:'Yanone Kaffeesatz Bold'"
       id="path384" />
  </g>
  <path
     id="shape01"
     fill="#061069"
     fill-rule="evenodd"
     stroke-opacity="0"
     stroke="#000000"
     stroke-width="0"
     stroke-linecap="square"
     stroke-linejoin="bevel"
     d="M 197.50313,199.54467 H 419.2839 l -0.999,166.906 -112.607,50.228 -108.206,-50.29 z"
     inkscape:label="Shield" />
  <path
     id="shape3"
     fill="#fbfbfb"
     fill-rule="evenodd"
     d="m 255.8934,229.95094 21.8712,-12.38168 c 20.5399,21.09138 34.2631,13.04208 40.8163,-6.18082 l 24.9975,7.96936 c -4.565,24.73404 12.182,31.31144 30.19,24.59314 l 13.563,21.875 c -14.235,11.3452 -17.33,26.5676 5.568,40.6828 l -6.718,24.7487 c -25.295,-2.942 -33.895,7.149 -23.865,30.582 l -22.804,13.877 c -15.559,-19.423 -30.8574,-15.945 -40.869,5.485 l -23.625,-7.125 c 1.2058,-18.547 -4.1661,-32.911 -32.6446,-24.257 l -12.72795,-22.628 c 15.28565,-13.016 21.93355,-28.1724 -5.78945,-41.1888 l 7.82237,-24.4394 c 17.60653,2.2863 31.69323,-1.918 24.21463,-31.6123 z"
     inkscape:label="Gear outline" />
  <circle
     id="shape4"
     cx="308.3779"
     cy="296.56912"
     fill="#061069"
     fill-rule="evenodd"
     r="45.436234"
     inkscape:label="Gear center" />
  <rect
     id="shape02"
     transform="rotate(-0.04251278)"
     fill="#061069"
     fill-rule="evenodd"
     stroke-opacity="0"
     stroke="#000000"
     stroke-width="0"
     stroke-linecap="square"
     stroke-linejoin="bevel"
     width="601.91516"
     height="30.937492"
     x="7.3495526"
     y="80.018906"
     inkscape:label="Blue line" />
  <rect
     id="shape03"
     fill="#fd022b"
     fill-rule="evenodd"
     stroke-opacity="0"
     stroke="#000000"
     stroke-width="0"
     stroke-linecap="square"
     stroke-linejoin="bevel"
     width="178.26694"
     height="39.691715"
     x="9.1983862"
     y="320.07169"
     inkscape:label="Left bar 3" />
  <rect
     id="rect2539"
     fill="#fd022b"
     fill-rule="evenodd"
     stroke-opacity="0"
     stroke="#000000"
     stroke-width="0"
     stroke-linecap="square"
     stroke-linejoin="bevel"
     width="178.26694"
     height="39.691715"
     x="9.2167959"
     y="259.992"
     inkscape:label="Left bar 2" />
  <rect
     id="rect2541"
     fill="#fd022b"
     fill-rule="evenodd"
     stroke-opacity="0"
     stroke="#000000"
     stroke-width="0"
     stroke-linecap="square"
     stroke-linejoin="bevel"
     width="178.26694"
     height="39.691715"
     x="9.0747366"
     y="200.02371"
     inkscape:label="Left bar 1" />
  <rect
     id="rect2543"
     fill="#fd022b"
     fill-rule="evenodd"
     stroke-opacity="0"
     stroke="#000000"
     stroke-width="0"
     stroke-linecap="square"
     stroke-linejoin="bevel"
     width="178.26694"
     height="39.691715"
     x="429.57401"
     y="319.47037"
     inkscape:label="Right bar 3" />
  <rect
     id="shape011"
     fill="#fd022b"
     fill-rule="evenodd"
     stroke-opacity="0"
     stroke="#000000"
     stroke-width="0"
     stroke-linecap="square"
     stroke-linejoin="bevel"
     width="178.26694"
     height="39.691715"
     x="429.57401"
     y="259.95728"
     inkscape:label="Right bar 2" />
  <rect
     id="shape021"
     fill="#fd022b"
     fill-rule="evenodd"
     stroke-opacity="0"
     stroke="#000000"
     stroke-width="0"
     stroke-linecap="square"
     stroke-linejoin="bevel"
     width="178.26694"
     height="39.691715"
     x="429.57401"
     y="199.96564"
     inkscape:label="Right bar 1" />
  <g
     aria-label="24/7"
     transform="rotate(25.938895)"
     id="shape1"
     style="font-weight:600;font-size:56px;font-family:'Yanone Kaffeesatz SemiBold';letter-spacing:0;word-spacing:0;fill:#0c1057;stroke:#000000;stroke-width:0;stroke-linecap:square;stroke-linejoin:bevel;stroke-opacity:0"
     inkscape:label="24 7">
    <path
       d="m 354.14112,287.57397 q -0.168,-0.504 -0.224,-1.064 0,-0.56 0,-0.672 0,-1.512 0.28,-2.408 0.28,-0.952 1.176,-2.576 1.4,-2.464 2.912,-4.592 1.568,-2.128 2.968,-3.92 1.456,-1.848 2.632,-3.472 1.176,-1.624 1.848,-3.08 0.672,-1.456 0.672,-2.856 0,-0.952 -0.392,-1.624 -0.392,-0.672 -1.176,-1.008 -0.728,-0.336 -1.736,-0.336 -1.008,0 -2.408,0.224 -1.344,0.224 -2.688,0.616 -1.344,0.392 -2.24,0.896 -0.56,-1.232 -0.672,-2.52 -0.112,-1.344 -0.112,-2.072 0,-0.896 1.456,-1.568 1.456,-0.728 3.752,-1.12 2.352,-0.448 4.872,-0.448 3.192,0 5.04,0.952 1.904,0.896 2.688,2.632 0.84,1.736 0.84,4.312 0,2.016 -0.672,3.864 -0.672,1.792 -1.848,3.64 -1.176,1.792 -2.632,3.696 -1.456,1.848 -3.08,3.976 -1.568,2.128 -3.136,4.648 h 4.144 q 1.736,0 3.136,-0.056 1.456,-0.112 2.464,-0.224 1.008,-0.168 1.512,-0.224 0.56,-0.112 0.56,-0.112 0,3.92 -0.224,5.208 -0.168,1.288 -1.232,1.288 z"
       style="font-weight:bold;font-family:'Yanone Kaffeesatz';-inkscape-font-specification:'Yanone Kaffeesatz Bold'"
       id="path387" />
    <path
       d="m 386.7891,287.57397 v -5.712 h -8.568 q -1.288,-1.288 -1.736,-2.968 -0.392,-1.68 -0.392,-3.024 0,-0.504 0.56,-2.072 0.616,-1.624 1.624,-3.864 1.008,-2.24 2.184,-4.648 1.232,-2.464 2.464,-4.704 1.232,-2.24 2.24,-3.864 1.064,-1.624 1.736,-2.128 0.616,-0.448 1.232,-0.728 0.672,-0.28 1.456,-0.28 1.176,0 2.072,0.28 0.952,0.224 1.568,0.56 l -0.168,21.616 q 1.4,0 2.408,-0.112 1.008,-0.168 1.008,-0.168 0,0 0.168,0.504 0.168,0.504 0.112,1.624 -0.056,1.568 -0.56,2.8 -0.448,1.176 -1.512,1.176 h -1.624 v 3.92 q 0,0.896 -0.28,1.288 -0.28,0.336 -1.568,0.448 -1.288,0.056 -4.424,0.056 z m -5.376,-11.536 h 5.376 l 0.84,-13.832 q -0.728,0.896 -1.68,2.688 -0.896,1.792 -1.848,3.92 -0.896,2.072 -1.624,4.032 -0.728,1.904 -1.064,3.192 z"
       style="font-weight:bold;font-family:'Yanone Kaffeesatz';-inkscape-font-specification:'Yanone Kaffeesatz Bold'"
       id="path389" />
    <path
       d="m 398.15708,288.69397 12.544,-42.336 q 0.224,-0.728 0.616,-1.064 0.392,-0.336 1.736,-0.448 1.4,-0.112 4.592,-0.112 l -12.544,42.504 q -0.168,0.672 -0.56,0.952 -0.392,0.336 -1.792,0.392 -1.4,0.112 -4.592,0.112 z"
       style="font-weight:bold;font-family:'Yanone Kaffeesatz';-inkscape-font-specification:'Yanone Kaffeesatz Bold'"
       id="path391" />
    <path
       d="m 428.90108,292.72597 q -2.632,0 -4.032,-0.168 -1.4,-0.112 -1.904,-0.504 -0.504,-0.336 -0.504,-1.064 0,-2.576 0.616,-5.88 0.616,-3.36 1.624,-7 1.064,-3.64 2.352,-7.168 1.288,-3.528 2.632,-6.552 1.344,-3.08 2.52,-5.152 -1.624,0.112 -3.248,0.224 -1.568,0.056 -3.304,0.112 -1.736,0 -3.752,0 -0.672,0 -1.064,-0.84 -0.336,-0.84 -0.504,-2.128 -0.112,-1.288 -0.112,-2.632 h 20.16 q -3.584,8.064 -6.16,15.008 -2.52,6.888 -3.92,12.768 -1.344,5.88 -1.4,10.976 z"
       style="font-weight:bold;font-family:'Yanone Kaffeesatz';-inkscape-font-specification:'Yanone Kaffeesatz Bold'"
       id="path393" />
  </g>
</svg>
