<?xml version="1.0" encoding="UTF-8" standalone="no"?>
<!-- Created using Krita: https://krita.org -->

<svg
   width="3.4794033in"
   height="4.0085936in"
   viewBox="0 0 250.51707 288.61874"
   version="1.1"
   id="svg2547"
   sodipodi:docname="USTA Favicon (InkS) 2.svg"
   inkscape:version="1.2 (dc2aedaf03, 2022-05-15)"
   inkscape:export-filename="USTA Favicon (InkS).png"
   inkscape:export-xdpi="172.44337"
   inkscape:export-ydpi="172.44337"
   xmlns:inkscape="http://www.inkscape.org/namespaces/inkscape"
   xmlns:sodipodi="http://sodipodi.sourceforge.net/DTD/sodipodi-0.dtd"
   xmlns="http://www.w3.org/2000/svg"
   xmlns:svg="http://www.w3.org/2000/svg">
  <sodipodi:namedview
     id="namedview27"
     pagecolor="#505050"
     bordercolor="#eeeeee"
     borderopacity="1"
     inkscape:showpageshadow="0"
     inkscape:pageopacity="0"
     inkscape:pagecheckerboard="0"
     inkscape:deskcolor="#505050"
     inkscape:document-units="in"
     showgrid="false"
     inkscape:zoom="2.60625"
     inkscape:cx="96.498801"
     inkscape:cy="126.42686"
     inkscape:window-width="3840"
     inkscape:window-height="2050"
     inkscape:window-x="-12"
     inkscape:window-y="-12"
     inkscape:window-maximized="1"
     inkscape:current-layer="svg2547" />
  <defs
     id="defs2519" />
  <g
     id="layer1"
     transform="translate(-579.023,-167.84578)">
    <path
       id="shape01"
       fill="#061069"
       fill-rule="evenodd"
       stroke-opacity="0"
       stroke="#000000"
       stroke-width="0"
       stroke-linecap="square"
       stroke-linejoin="bevel"
       d="m 582.01447,405.95581 246.07138,-0.86331 -1.10842,-172.71388 -124.94031,-64.53284 -120.0573,64.6125 z"
       sodipodi:nodetypes="cccccc" />
  </g>
  <g
     aria-label="USTA"
     id="shape0"
     style="font-size:76px;font-family:'Faster One';letter-spacing:2.55px;word-spacing:0px;fill:#fe0000;stroke:#000000;stroke-width:0;stroke-linecap:square;stroke-linejoin:bevel;stroke-opacity:0"
     transform="matrix(0.96561465,0,0,0.96561465,-3.0254437e-7,226.06625)">
    <path
       d="m 34.504,34.151999 -32.2239996,-3.42 H 35.112 Z m -1.292,7.296 -32.1479996,-3.42 H 33.82 Z m 3.876,-21.888 -32.1479996,-3.42 H 37.696 Z m -33.4399996,3.876 H 36.404 l -0.608,3.42 z M 32.528,45.323999 q -0.304,2.508 -0.38,3.42 L 3.6621094e-7,45.323999 Z m -0.532,7.296 q 0,1.824 0.228,3.42 l -32.14799963,-3.42 z m 1.292,7.372 q 0.988,2.128 2.432,3.42 l -32.1479996,-3.42 z m 20.064,-8.208 q 2.66,0 3.8,-0.684 1.14,-0.76 1.596,-3.344 l 5.624,-31.616 h 14.44 l -4.712,26.676 q -1.14,6.46 -2.66,10.412 -1.444,3.952 -4.104,6.688 -2.66,2.736 -6.612,3.8 -3.876,1.064 -9.88,1.064 -9.196,0 -12.92,-2.736 -3.648,-2.812 -3.648,-9.576 0,-3.724 1.064,-9.652 l 4.712,-26.676 h 14.44 l -6.308,35.644 z"
       id="path1319" />
    <path
       d="m 100.43794,34.151999 -32.223999,-3.42 h 32.755999 q -0.38,1.52 -0.532,3.42 z m 2.584,-10.716 -1.14,3.344 -31.539999,-3.344 z m -2.584,14.592 q 0.152,2.052 0.608,3.42 l -32.147999,-3.42 z m 10.64,10.716 -40.203999,-3.42 h 32.755999 q 2.508,2.432 7.448,3.42 z m -2.356,-32.604 q -1.748,1.14 -3.344,3.116 l -29.335999,-3.116 z m -39.139999,36.48 h 28.424 l -1.14,3.344 z m -1.292,7.372 h 27.284 l -1.14,3.344 z m 32.983999,-9.728 q 6.384,1.748 11.628,1.748 5.32,0 8.664,-0.456 l 0.608,-3.8 -6.308,-0.608 q -7.22,-0.684 -10.26,-3.268 -2.964,-2.584 -2.964,-7.296 0,-2.052 0.456,-4.56 1.748,-9.728 6.384,-13.376 4.636,-3.648 14.212,-3.648 9.652,0 17.024,1.9 l -3.952,12.16 q -6.612,-1.14 -10.64,-1.14 -3.952,0 -6.84,0.38 l -0.608,3.724 5.092,0.532 q 7.752,0.836 11.02,3.724 3.268,2.812 3.268,7.6 0,4.864 -2.052,10.032 -1.14,2.66 -2.432,4.484 -1.216,1.748 -3.192,3.04 -1.9,1.216 -3.496,1.9 -1.596,0.608 -4.104,0.912 -3.496,0.532 -8.664,0.532 -9.424,0 -17.099999,-1.976 z"
       id="path1321" />
    <path
       d="m 199.96396,28.299999 h -10.488 l -6.156,35.34 h -14.44 l 6.156,-35.34 h -10.412 l 2.204,-12.16 h 35.34 z m -33.44,35.112 -32.224,-3.42 h 32.832 z m 2.584,-14.668 -32.224,-3.42 h 32.832 z m 1.292,-7.296 -32.224,-3.42 h 32.832 z m 1.292,-7.296 -32.224,-3.42 h 32.832 z m -3.876,21.888 -32.224,-3.42 h 32.832 z m -5.244,-29.184 -32.224,-3.42 h 32.756 z m 1.216,-7.296 -32.148,-3.42 h 32.756 z"
       id="path1323" />
    <path
       d="m 228.96192,63.639999 h -15.2 l 19.988,-47.5 h 22.344 l 3.344,47.5 h -15.276 l -0.304,-7.524 h -11.932 z m 13.756,-19.608 v -13.3 h -0.76 l -5.32,13.3 z m -31.388,19.304 -31.16,-3.344 h 32.604 z m 3.116,-7.372 -31.16,-3.344 h 32.604 z m 3.116,-7.296 -31.16,-3.344 h 32.528 z m 3.04,-7.296 -31.084,-3.344 h 32.528 z m 3.116,-7.296 -31.084,-3.344 h 32.452 z m 6.156,-14.668 -31.008,-3.268 h 32.376 z m -3.116,7.296 -31.008,-3.268 h 32.376 z m 3.116,-7.296 1.368,-3.268 h -32.376 z"
       id="path1325" />
  </g>
  <g
     id="layer4"
     transform="translate(-390.6711,-95.397996)">
    <path
       id="shape3"
       fill="#fbfbfb"
       fill-rule="evenodd"
       d="m 455.81456,149.69929 25.36407,-14.35906 c 23.82016,24.45972 39.73498,15.12493 47.33474,-7.1679 l 28.98965,9.24208 c -5.29404,28.68411 14.12748,36.31193 35.01139,28.52071 l 15.72904,25.36847 c -16.50836,13.15705 -20.09763,30.8105 6.45722,47.17992 l -7.79088,28.70111 c -29.33465,-3.41184 -39.30809,8.29071 -27.67628,35.466 l -26.44584,16.09319 c -18.0438,-22.52489 -35.78538,-18.49145 -47.39585,6.36096 l -27.39796,-8.26288 c 1.39837,-21.50899 -4.83143,-38.16694 -37.858,-28.13088 l -14.76063,-26.24174 c 17.7268,-15.09467 25.43638,-32.67158 -6.71403,-47.76672 l 9.07161,-28.34242 c 20.41833,2.65143 36.7547,-2.22431 28.08175,-36.66084 z"
       style="stroke-width:1.1597" />
    <circle
       id="shape4"
       cx="516.68091"
       cy="226.24716"
       fill="#061069"
       fill-rule="evenodd"
       r="61.082066"
       style="stroke-width:1.34435" />
  </g>
  <g
     aria-label="24/7"
     id="shape1"
     style="font-weight:600;font-size:64px;font-family:'Yanone Kaffeesatz SemiBold';letter-spacing:0;word-spacing:0;fill:#0c1057;stroke:#000000;stroke-width:0;stroke-linecap:square;stroke-linejoin:bevel;stroke-opacity:0"
     transform="translate(-391.42242,-95.433919)">
    <path
       d="m 469.00097,243.2193 q -0.192,-0.576 -0.256,-1.216 0,-0.64 0,-0.768 0,-1.728 0.32,-2.752 0.32,-1.088 1.344,-2.944 1.6,-2.816 3.328,-5.248 1.792,-2.432 3.392,-4.48 1.664,-2.112 3.008,-3.968 1.344,-1.856 2.112,-3.52 0.768,-1.664 0.768,-3.264 0,-1.088 -0.448,-1.856 -0.448,-0.768 -1.344,-1.152 -0.832,-0.384 -1.984,-0.384 -1.152,0 -2.752,0.256 -1.536,0.256 -3.072,0.704 -1.536,0.448 -2.56,1.024 -0.64,-1.408 -0.768,-2.88 -0.128,-1.536 -0.128,-2.368 0,-1.024 1.664,-1.792 1.664,-0.832 4.288,-1.28 2.688,-0.512 5.568,-0.512 3.648,0 5.76,1.088 2.176,1.024 3.072,3.008 0.96,1.984 0.96,4.928 0,2.304 -0.768,4.416 -0.768,2.048 -2.112,4.16 -1.344,2.048 -3.008,4.224 -1.664,2.112 -3.52,4.544 -1.792,2.432 -3.584,5.312 h 4.736 q 1.984,0 3.584,-0.064 1.664,-0.128 2.816,-0.256 1.152,-0.192 1.728,-0.256 0.64,-0.128 0.64,-0.128 0,4.48 -0.256,5.952 -0.192,1.472 -1.408,1.472 z"
       style="font-weight:bold;font-family:'Yanone Kaffeesatz';-inkscape-font-specification:'Yanone Kaffeesatz Bold';fill:#ffffff"
       id="path1328" />
    <path
       d="m 506.31294,243.2193 v -6.528 h -9.792 q -1.472,-1.472 -1.984,-3.392 -0.448,-1.92 -0.448,-3.456 0,-0.576 0.64,-2.368 0.704,-1.856 1.856,-4.416 1.152,-2.56 2.496,-5.312 1.408,-2.816 2.816,-5.376 1.408,-2.56 2.56,-4.416 1.216,-1.856 1.984,-2.432 0.704,-0.512 1.408,-0.832 0.768,-0.32 1.664,-0.32 1.344,0 2.368,0.32 1.088,0.256 1.792,0.64 l -0.192,24.704 q 1.6,0 2.752,-0.128 1.152,-0.192 1.152,-0.192 0,0 0.192,0.576 0.192,0.576 0.128,1.856 -0.064,1.792 -0.64,3.2 -0.512,1.344 -1.728,1.344 h -1.856 v 4.48 q 0,1.024 -0.32,1.472 -0.32,0.384 -1.792,0.512 -1.472,0.064 -5.056,0.064 z m -6.144,-13.184 h 6.144 l 0.96,-15.808 q -0.832,1.024 -1.92,3.072 -1.024,2.048 -2.112,4.48 -1.024,2.368 -1.856,4.608 -0.832,2.176 -1.216,3.648 z"
       style="font-weight:bold;font-family:'Yanone Kaffeesatz';-inkscape-font-specification:'Yanone Kaffeesatz Bold';fill:#ffffff"
       id="path1330" />
    <path
       d="m 519.22492,244.3393 12.544,-42.336 q 0.224,-0.728 0.616,-1.064 0.392,-0.336 1.736,-0.448 1.4,-0.112 4.592,-0.112 l -12.544,42.504 q -0.168,0.672 -0.56,0.952 -0.392,0.336 -1.792,0.392 -1.4,0.112 -4.592,0.112 z"
       style="font-size:56px;fill:#ffffff"
       id="path1332" />
    <path
       d="m 551.49692,249.1073 q -3.008,0 -4.608,-0.192 -1.6,-0.128 -2.176,-0.576 -0.576,-0.384 -0.576,-1.216 0,-2.944 0.704,-6.72 0.704,-3.84 1.856,-8 1.216,-4.16 2.688,-8.192 1.472,-4.032 3.008,-7.488 1.536,-3.52 2.88,-5.888 -1.856,0.128 -3.712,0.256 -1.792,0.064 -3.776,0.128 -1.984,0 -4.288,0 -0.768,0 -1.216,-0.96 -0.384,-0.96 -0.576,-2.432 -0.128,-1.472 -0.128,-3.008 h 23.04 q -4.096,9.216 -7.04,17.152 -2.88,7.872 -4.48,14.592 -1.536,6.72 -1.6,12.544 z"
       style="font-weight:bold;font-family:'Yanone Kaffeesatz';-inkscape-font-specification:'Yanone Kaffeesatz Bold';fill:#ffffff"
       id="path1334" />
  </g>
</svg>
