<?xml version="1.0" encoding="UTF-8"?>
<svg width="506px" height="120px" viewBox="0 0 506 120" version="1.1" xmlns="http://www.w3.org/2000/svg" xmlns:xlink="http://www.w3.org/1999/xlink">
    <!-- Generator: Sketch 51.2 (57519) - http://www.bohemiancoding.com/sketch -->
    <title>so_logo</title>
    <desc>Created with Sketch.</desc>
    <defs></defs>
    <g id="so_logo" stroke="none" stroke-width="1" fill="none" fill-rule="evenodd">
        <path d="M6.50090581,43.2059414 C8.89529235,44.1527709 12.0949041,42.2407714 13.6339737,38.9406236 C15.1793047,35.6519387 14.4855337,32.2153832 12.0836334,31.2754314 C9.67922853,30.3320408 6.49464434,32.242894 4.95307015,35.539603 C3.84353748,37.899799 3.89112466,40.3356496 4.88795086,41.8716684 C5.27866665,42.4734668 5.82341464,42.9400039 6.50090581,43.2059414" id="Fill-17" fill="#D8232A"></path>
        <path d="M33.041953,8.27586207 C35.3248923,8.27586207 37.1755102,6.4239374 37.1755102,4.14264931 C37.1755102,1.85192466 35.3248923,0 33.041953,0 C30.7637257,0 28.9142857,1.85192466 28.9142857,4.14264931 C28.9142857,6.4239374 30.7637257,8.27586207 33.041953,8.27586207" id="Fill-18" fill="#D8232A"></path>
        <path d="M33.6768577,18.4649546 C33.0417494,23.5925392 32.6900683,34.1274569 33.5819964,41.3793103 C33.5819964,41.3793103 36.9345356,40.4240717 36.9299082,40.3490172 C36.3827202,32.3147779 36.4706404,23.9644 37.1890417,17.0718983 C43.5100473,19.2769075 47.7776516,21.2055798 51.1174655,22.7999186 C51.9295713,21.9424782 52.6063261,20.9872395 53.3756286,20.1036438 C49.785936,17.9316131 39.6901424,13.9537264 39.5906536,13.9196107 C41.9332665,13.2759618 49.8923658,11.8590245 57.8179166,11.6941321 C57.8607199,11.6941321 57.7566038,9.00922919 57.8179166,9.01605232 C50.4846709,8.80226081 40.2627811,11.0266022 39.2597957,11.2995276 C44.2434876,7.6389166 49.1947878,5.48053212 53.5399007,3.47453096 C53.1893764,3.26187664 51.7236527,2.06896552 51.7236527,2.06896552 C42.4480629,5.8000822 35.4688119,11.4530481 35.4179107,11.4973984 C34.1696741,12.6323129 34.3223777,13.2566296 33.6768577,18.4649546" id="Fill-19" fill="#D8232A"></path>
        <path d="M11.152645,27.2611633 C18.4457223,20.5844337 25.9982693,17.4998901 25.8842422,17.6077495 C20.0525729,23.1003708 16.6131446,27.6386711 14.2546463,31.0116213 C14.6642128,31.5942963 14.9806961,32.236763 15.4077158,32.8100591 C22.2097786,24.0968976 22.4773931,23.7533889 27.1908992,19.2854317 C27.1792637,19.4003253 25.5863756,28.7934698 27.0384752,43.4482759 C27.0384752,43.4482759 30.1253505,42.2758914 30.1334953,42.3989917 C29.7355641,34.490086 28.8559269,25.3290737 30.8688534,15.2149127 C31.392447,12.2816068 30.3918015,11.8876856 20.4993728,10.3448276 C19.8524438,11.0881193 19.4161158,11.4222489 17.9360911,12.8314551 L26.5032462,14.547826 C16.4839915,18.6722746 10.3265306,25.5072761 10.3265306,25.5072761 C10.3265306,25.5072761 11.0793419,27.3326788 11.152645,27.2611633" id="Fill-20" fill="#D8232A"></path>
        <path d="M86.7446236,8.27586207 C89.0210238,8.27586207 90.8734694,6.4239374 90.8734694,4.14264931 C90.8734694,1.85192466 89.0210238,0 86.7446236,0 C84.4623352,0 82.6122449,1.85192466 82.6122449,4.14264931 C82.6122449,6.4239374 84.4623352,8.27586207 86.7446236,8.27586207" id="Fill-21" fill="#D8232A"></path>
        <path d="M61.9702194,11.6941321 C69.896132,11.8590245 77.8521197,13.2759618 80.196811,13.9196107 C80.1008024,13.9537264 70.0013945,17.9316131 66.4132186,20.1036438 C67.1801304,20.9872395 67.8579741,21.9424782 68.6699984,22.7999186 C72.0106341,21.2055798 76.2766537,19.2769075 82.5993388,17.0718983 C83.3153546,23.9644 83.4055795,32.3147779 82.8607597,40.3490172 C82.8561328,40.4240717 86.2013954,41.3793103 86.2013954,41.3793103 C87.097861,34.1274569 86.7473719,23.5925392 86.1146407,18.4649546 C85.4680287,13.2566296 85.6195603,12.6323129 84.3760758,11.4973984 C84.3217095,11.4530481 77.3431586,5.8000822 68.0627153,2.06896552 C68.0627153,2.06896552 66.604079,3.26187664 66.2466495,3.47453096 C70.5971103,5.48053212 75.5467572,7.6389166 80.526479,11.2995276 C79.5235942,11.0266022 69.3027296,8.80226081 61.9702194,9.01605232 C62.0373097,9.00922919 61.9251069,11.6941321 61.9702194,11.6941321" id="Fill-22" fill="#D8232A"></path>
        <path d="M88.9187626,15.2149127 C90.9369489,25.3290737 90.0575548,34.490086 89.6608968,42.3989917 C89.66206,42.2758914 92.7515718,43.4482759 92.7515718,43.4482759 C94.2044334,28.7934698 92.6119855,19.4003253 92.5957004,19.2854317 C97.3113935,23.7533889 97.5789341,24.0968976 104.382607,32.8100591 C104.803692,32.236763 105.118925,31.5942963 105.531868,31.0116213 C103.174021,27.6386711 99.7355436,23.1003708 93.9019962,17.6077495 C93.7880007,17.4998901 101.34195,20.5844337 108.629522,27.2611633 C108.706295,27.3326788 109.461224,25.5072761 109.461224,25.5072761 C109.461224,25.5072761 103.300812,18.6722746 93.2901426,14.547826 L101.852604,12.8314551 C100.369498,11.4222489 99.9298013,11.0881193 99.287704,10.3448276 C89.3980091,11.8876856 88.3953136,12.2816068 88.9187626,15.2149127" id="Fill-23" fill="#D8232A"></path>
        <path d="M3.27622965,46.9570891 C1.77031052,41.8914836 4.17449719,35.0409339 4.13000097,35.1743325 C1.03056078,44.0837067 -2.21488265,52.2044945 2.03867838,72.4137931 C1.1334583,67.6645666 1.56312497,57.3232233 2.21805379,53.8808309 C2.6741401,51.5197936 3.9979028,49.3913185 3.27622965,46.9570891" id="Fill-24" fill="#D8232A"></path>
        <path d="M20.1783969,47.5863466 C15.6921276,48.684838 9.83370971,49.9968591 5.19881981,50.2210652 C3.87275511,50.2839378 3.5997079,51.8296552 3.44647888,52.3990676 C-0.46950193,67.0448288 4.08474112,87.1189882 15.2911975,99.3103448 C15.2911975,99.3103448 15.450187,99.0624132 15.4329056,99.0410602 C7.84864501,88.4879505 5.61933555,80.0333628 4.4269142,64.1230315 C4.43382679,64.2345414 6.97535479,74.7461315 13.3211101,83.9540044 C13.2462237,83.8472395 14.6563916,81.2753936 14.8764423,80.9859423 C10.9247464,74.3819448 7.65854885,66.7945247 5.88892646,60.6128414 C7.23342472,65.2903269 16.3684091,72.1576776 19.7279266,73.8516795 L20.2590437,68.4137911 C19.9134144,68.2192419 10.7841905,63.2772168 6.14469219,55.1215706 C6.23225164,55.1120804 17.908764,53.5023041 20.6530612,52.2756949 C20.4410752,50.8747032 20.2832378,47.5614348 20.1783969,47.5863466" id="Fill-25" fill="#D8232A"></path>
        <path d="M112.958542,50.2210652 C108.329582,49.8853491 102.026684,48.684838 97.5451868,47.5863466 C97.4380456,47.5614348 97.281366,50.8747032 97.0693878,52.2756949 C99.8124327,53.5023041 111.488519,55.1120804 111.574923,55.1215706 C106.93905,63.2772168 97.8043994,68.2192419 97.466847,68.4137911 L97.9944886,73.8516795 C101.358492,72.1576776 110.487382,65.2903269 111.831831,60.6128414 C110.057665,66.7945247 106.791587,74.3819448 102.845796,80.9859423 C103.068143,81.2753936 104.475955,83.8472395 104.399919,83.9540044 C110.745443,74.7461315 113.285726,64.2345414 113.296094,64.1230315 C112.104869,80.0333628 109.868728,88.4879505 102.285897,99.0410602 C102.269768,99.0624132 102.429904,99.3103448 102.429904,99.3103448 C113.638255,87.1189882 118.190028,67.0448288 114.277646,52.3990676 C114.120966,51.8296552 113.850233,50.2839378 112.958542,50.2210652" id="Fill-26" fill="#D8232A"></path>
        <path d="M105.736675,38.713001 C106.728868,41.9405682 109.209351,44.0044325 111.275031,43.3157547 C111.861801,43.120539 112.348518,42.7290229 112.731013,42.1910951 C113.689855,40.833261 113.832639,38.5709273 113.234405,36.2240001 C112.238043,32.3240231 109.761728,30.4900796 107.693964,31.1755038 C105.623073,31.8598434 104.749692,35.4800112 105.736675,38.713001" id="Fill-27" fill="#D8232A"></path>
        <path d="M115.658005,35.1743325 C115.60513,35.0409339 118.00817,41.8914836 116.5054,46.9570891 C115.781844,49.3913185 117.124597,51.5197936 117.568471,53.8808309 C118.961316,61.3629581 118.656588,67.6645666 117.746577,72.4137931 C122.004425,52.2044945 118.756772,44.0837067 115.658005,35.1743325" id="Fill-28" fill="#D8232A"></path>
        <path d="M68.155102,56.8947327 C68.155102,51.7493347 63.9977288,47.5862069 58.8624348,47.5862069 C53.7247202,47.5862069 49.5673469,51.7493347 49.5673469,56.8947327 C49.5673469,62.0413434 53.7247202,66.2068966 58.8624348,66.2068966 C63.9977288,66.2068966 68.155102,62.0413434 68.155102,56.8947327" id="Fill-29" fill="#D8232A"></path>
        <path d="M96.5137992,70.1368581 C85.3736773,75.4343209 77.1468361,76.5465663 71.5250044,77.5222612 C81.1555386,70.0014746 85.5019276,64.6491581 89.4812149,59.3586979 C88.7493649,58.7681457 88.4293276,58.4810393 86.0384607,55.862069 C83.9735141,58.6677752 78.4975818,66.1150346 66.5573666,74.7550692 C64.2723945,76.413517 63.5852555,76.9655549 62.929885,78.5388045 C62.6569121,79.19238 62.6663249,80.52404 62.672208,81.4903981 C62.6992699,85.928876 61.9744796,119.815598 61.9591837,120 C63.0922569,119.995332 66.7350344,119.815598 66.7432707,119.715228 C68.1622596,104.626971 68.4587647,98.7004414 68.4787671,91.9265983 C68.4787671,89.4710217 68.5952512,87.483452 68.5952512,87.2687057 C76.517351,91.2788583 81.880329,93.3913076 88.4681556,95.6846574 C88.8505531,95.2084809 91.3579042,91.2695215 91.4590925,91.3127041 C85.2089522,88.4766533 78.8187957,86.106275 72.6969057,83.0753187 C81.9615149,81.3083306 88.7952526,79.7537546 97.0538622,75.4751693 C97.1915253,75.3993079 96.36437,70.2022156 96.5137992,70.1368581" id="Fill-30" fill="#D8232A"></path>
        <path d="M57.1178664,81.4903981 C57.1213964,80.52404 57.129633,79.19238 56.8590003,78.5388045 C56.2024218,76.9655549 55.5152501,76.413517 53.228992,74.7550692 C41.2917362,66.1150346 35.8131889,58.6677752 33.746967,55.862069 C31.3571625,58.4810393 31.0324032,58.7681457 30.3028716,59.3586979 C34.2858791,64.6491581 38.6289457,70.0014746 48.2634702,77.5222612 C42.6354865,76.5465663 34.4094288,75.4343209 23.2758344,70.1368581 C23.4252708,70.2022156 22.598076,75.3993079 22.7333924,75.4751693 C30.9818067,79.7537546 37.8276376,81.3083306 47.0856295,83.0753187 C40.9693303,86.106275 34.5753384,88.4766533 28.3307828,91.3127041 C28.4307992,91.2695215 30.9300335,95.2084809 31.3136259,95.6846574 C37.9088274,93.3913076 43.2720617,91.2788583 51.1898334,87.2687057 C51.1898334,87.483452 51.3098531,89.4710217 51.3098531,91.9265983 C51.3298564,98.7004414 51.6263757,104.626971 53.0395491,119.715228 C53.0489625,119.815598 56.6930907,119.995332 57.8285714,120 C57.8120981,119.815598 57.0896265,85.928876 57.1178664,81.4903981" id="Fill-31" fill="#D8232A"></path>
        <path d="M47.5020408,112.820389 C47.5020408,112.133156 47.0361036,111.724138 45.6553064,111.724138 L43.3714286,111.724138 L43.3714286,115.862069 L44.0114379,115.862069 L44.0114379,113.951935 L45.1828251,113.951935 L46.6748713,115.862069 L47.4418354,115.862069 L45.8647164,113.951935 C46.7874292,113.935325 47.5020408,113.633234 47.5020408,112.820389 Z M44.9851944,113.55226 L44.0114379,113.55226 L44.0114379,112.08644 L45.5008665,112.08644 C46.1461111,112.08644 46.8136054,112.165337 46.8136054,112.811046 C46.8136054,113.649843 45.7272911,113.55226 44.9851944,113.55226 Z" id="Fill-32" fill="#D8232A"></path>
        <path d="M45.4431011,109.655172 C43.1546828,109.655172 41.3061224,111.517966 41.3061224,113.792523 C41.3061224,116.082159 43.1546828,117.931034 45.4431011,117.931034 C47.7280467,117.931034 49.5673469,116.082159 49.5673469,113.792523 C49.5673469,111.517966 47.7280467,109.655172 45.4431011,109.655172 Z M45.4431011,117.391683 C43.4255427,117.391683 41.9624366,115.820023 41.9624366,113.792523 C41.9624366,111.777783 43.4255427,110.203803 45.4431011,110.203803 C47.4537143,110.203803 48.9145053,111.777783 48.9145053,113.792523 C48.9145053,115.820023 47.4537143,117.391683 45.4431011,117.391683 Z" id="Fill-33" fill="#D8232A"></path>
        <g id="new" transform="translate(145.000000, 43.000000)" fill="#595950">
            <path d="M87.1680008,19.4410581 C87.0413304,20.639197 87.3190756,21.233037 88.7368539,21.233037 L93.0331873,21.233037 C95.9442814,21.233037 96.7844894,20.864647 97.9117395,20.3742352 L96.2034327,24.6659201 L82.5764906,24.6659201 C78.5474434,24.6659201 77.672372,22.5322798 78.3289661,19.2190944 C78.8681867,16.4985869 79.1099063,15.4863861 79.9582491,12.6020206 C80.9588288,9.19935244 82.9193141,7.12149362 86.9530098,7.12149362 L100.658976,7.12149362 L100.354502,11.4875538 C99.8396857,10.854202 98.5683336,10.5543767 96.4381796,10.5543767 L91.4027421,10.5543767 C89.9826395,10.5543767 89.495714,11.0052767 88.9378996,12.3475177 C88.2592253,13.9884219 87.3829918,17.4491957 87.1680008,19.4410581" id="Fill-1"></path>
            <path d="M37.5700612,7.12149362 L37.588655,8.98900991 C38.5439122,7.7164957 39.1377522,7.12149362 40.3684303,7.12149362 L47.8001457,7.12149362 C51.8338414,7.12149362 52.7670185,9.35972409 51.9686466,12.5741298 L50.3103107,19.2190944 C49.5096145,22.4288517 47.4642949,24.6659201 43.4271129,24.6659201 L36.5183485,24.6659201 C34.9181183,24.6659201 34.720559,23.6618541 34.6705882,22.9494785 L34.5985371,22.9494785 L33.3306714,28.0279142 C32.886744,29.8222174 33.0250355,30.6054818 33.2574582,31.3120468 L23.7013995,31.3120468 L28.911154,10.4079504 C29.3585677,8.61829572 29.2191141,7.83270704 28.983205,7.12149362 L37.5700612,7.12149362 Z M36.2708184,21.2167674 L39.013406,21.2167674 C40.4335087,21.2167674 40.9239205,20.7681916 41.4782486,19.4247885 C42.1569229,17.7850465 43.0378049,14.3254348 43.244661,12.3335724 C43.3736556,11.1354334 43.0970726,10.5381071 41.67697,10.5381071 L40.2487326,10.5381071 L39.8187507,10.5543767 L38.9181127,10.5543767 C38.0593109,10.5543767 37.5933034,10.9297393 37.3504217,11.8989419 L35.3620457,19.8884718 C35.1180018,20.864647 35.3818016,21.2132811 36.235955,21.2132811 L36.2708184,21.2167674 Z" id="Fill-2"></path>
            <path d="M74.3416505,7.12497997 L74.3416505,7.12149362 L60.8100017,7.12149362 L60.8088396,7.13427687 C57.0110529,7.2493261 55.1226186,9.29929419 54.1545781,12.6020206 C53.302749,15.4863861 53.0621915,16.4985869 52.524133,19.2190944 C51.8872948,22.4358244 52.7007742,24.5369255 56.4427795,24.6589474 L56.438131,24.6659201 L73.9848817,24.6659201 L75.7024853,20.4881223 C74.1220111,21.1214741 73.199293,21.233037 71.5165528,21.233037 L63.0435838,21.233037 C62.779784,21.233037 62.5322538,21.2097947 62.2975069,21.171445 C61.4398672,21.0029385 61.2574154,20.4276924 61.3608435,19.4410581 C61.4143007,18.9645916 61.5049456,18.4009666 61.622319,17.801316 L76.6333382,17.801316 L77.9720929,12.4230551 C78.8773792,8.8065581 78.1847596,7.16332971 74.3416505,7.12497997 Z M69.4979617,11.9744793 L68.9029597,14.3649466 L62.4532301,14.3707572 C62.6798423,13.5851685 62.9122649,12.8716309 63.1342286,12.3475177 C63.6839083,11.0052767 64.1743201,10.5543767 65.5990712,10.5543767 L68.5810542,10.5543767 C69.5549053,10.5543767 69.7524646,10.9646027 69.4979617,11.9744793 Z" id="Fill-3"></path>
            <path d="M103.500842,10.8116378 C104.105141,8.38630705 103.835531,7.67741786 103.533382,6.78142841 L113.316052,6.78142841 L109.941275,20.2991318 C109.341624,22.7233004 109.612397,23.4321896 109.91106,24.3258549 L99.1568624,24.3258549 C99.9064255,23.4321896 100.528156,22.7233004 101.134779,20.2991318 L103.500842,10.8116378 Z M114.823314,0.431640625 L113.669335,5.06382476 L105.002293,5.06382476 L106.155109,0.431640625 L114.823314,0.431640625 Z" id="Fill-4"></path>
            <path d="M133.500412,7.12149362 C137.230796,7.12149362 138.989073,8.76123567 137.754909,13.7304327 L135.847881,21.3852739 C135.400467,23.1760907 135.542245,23.9570309 135.883906,24.6659201 L127.072762,24.6659201 L127.051844,22.5009028 L127.030926,22.7275149 C126.197691,24.2940438 125.355159,24.6659201 122.965853,24.6659201 L116.693927,24.6659201 C112.738093,24.6659201 112.02688,23.0831216 112.828738,19.3690071 L113.143671,18.323105 C114.225598,14.6670961 115.69451,12.7972556 119.651506,12.7972556 L127.677061,12.7972556 C128.910064,12.7972556 129.248239,12.4951061 129.450446,11.6734919 C129.684031,10.7438012 128.980952,10.5543767 128.238362,10.5543767 L119.464406,10.5543767 C117.822339,10.5543767 116.944944,10.7798267 115.766561,11.3027777 L117.442328,7.12149362 L133.500412,7.12149362 Z M128.0501,16.2301387 C127.837433,16.2301387 124.402226,16.2301387 124.402226,16.2301387 C123.046039,16.2673263 122.593977,16.2278145 122.104727,17.6665109 C122.104727,17.6665109 121.771201,18.4381542 121.653827,19.6281584 C121.545751,20.8135141 121.818847,21.1981736 123.151791,21.233037 L125.204084,21.233037 C126.58235,21.233037 127.130868,20.9738857 127.694493,18.7310068 L128.255794,16.4799931 L128.338304,16.1243864 C128.338304,16.1243864 128.263928,16.2301387 128.0501,16.2301387 Z" id="Fill-5"></path>
            <path d="M144.263579,4.46417423 C144.871365,2.0388435 144.601754,1.32879219 144.303091,0.431640625 L154.083438,0.431640625 L149.131672,20.2991318 C148.525049,22.7233004 148.80047,23.4321896 149.100295,24.3258549 L138.340287,24.3258549 C139.087526,23.4321896 139.711581,22.7233004 140.320528,20.2991318 L144.263579,4.46417423" id="Fill-6"></path>
            <path d="M1.16685189,19.6925086 C1.54802509,20.2944834 2.27783233,20.3944251 4.64970584,20.5664179 C7.02506569,20.7360865 11.2679418,20.7093579 13.0494617,20.5664179 C14.8286574,20.4281264 15.6479473,20.1515434 15.9745012,19.2613645 C16.1767089,18.7093606 16.2115724,18.5885009 16.3126762,18.0225516 C16.4672373,17.0986714 16.0372553,16.4095382 14.619477,16.4095382 C14.619477,16.4095382 13.1679973,16.4664817 8.49397706,16.4374289 C3.82692953,16.4095382 2.02332949,14.9499237 2.60322409,11.1742172 C2.76940631,10.0725336 3.0715558,8.72215783 3.79903881,6.34912221 C5.03087904,2.38050485 7.46550668,0.431640625 11.8548091,0.431640625 L28.1801786,0.431640625 L27.9210273,5.27765363 C27.3876172,4.71402861 26.6845386,4.12599922 24.8925597,4.12599922 L15.357419,4.12599922 C13.9384785,4.12599922 13.2086712,4.53854949 12.868172,5.40199976 C12.5683467,6.15272504 12.4811882,6.53157402 12.4544596,7.04755238 C12.4161099,7.95283874 12.9506821,8.27125782 14.3719468,8.27125782 L20.8995379,8.23871865 C26.5137079,8.23871865 26.5520576,11.9935071 26.4114419,13.436852 C26.268502,14.8790348 25.9965674,16.3247039 25.234221,18.7837359 C23.9547341,22.9127249 20.6601426,24.4560116 17.4352778,24.4560116 L0.764760641,24.4560116 L1.16685189,19.6925086" id="Fill-7"></path>
            <path d="M297.537956,6.16580034 C301.575138,6.16580034 302.443237,8.30408905 301.785481,11.6172744 C301.252071,14.3342956 301.012676,15.3499828 300.164333,18.2343483 C299.159105,21.6335301 297.195133,23.7137131 293.162599,23.7137131" id="Fill-8"></path>
            <path d="M322.272187,18.4865269 C322.143192,19.6776932 322.417451,20.2796679 323.834067,20.2796679 L328.133887,20.2796679 C331.047305,20.2796679 331.891,19.9054674 333.013601,19.4208661 L331.309943,23.712551 L317.679515,23.712551 C313.648143,23.712551 312.774234,21.5765865 313.428504,18.2599148 C313.9654,15.5487042 314.20712,14.5306928 315.056625,11.6428409 C316.05488,8.24714549 318.022338,6.16580034 322.058358,6.16580034 L335.757351,6.16580034 L335.451715,10.5341847 C334.938061,9.89618445 333.673682,9.59984552 331.545852,9.59984552 L326.498793,9.59984552 C325.083339,9.59984552 324.589441,10.0530698 324.036275,11.3918244 C323.355277,13.0304044 322.476719,16.4888539 322.272187,18.4865269" id="Fill-9"></path>
            <path d="M286.969837,6.16580034 L286.988431,8.03215451 C287.939039,6.76312664 288.53869,6.16580034 289.768206,6.16580034 L297.198759,6.16580034 C301.235941,6.16580034 302.160984,8.40751715 301.36145,11.6161123 L299.708924,18.2599148 C298.907066,21.4743206 296.853612,23.712551 292.823402,23.712551 L285.918124,23.712551 C284.309759,23.712551 284.111038,22.7015123 284.06804,21.9937853 L283.989016,21.9937853 L282.725799,27.0745452 C282.278385,28.8665241 282.419001,29.6497885 282.651423,30.3586777 L273.09304,30.3586777 L278.312092,9.45109501 C278.752533,7.65795398 278.613079,6.87468953 278.378332,6.16580034 L286.969837,6.16580034 Z M285.662459,20.259912 L288.413182,20.259912 C289.832122,20.259912 290.316723,19.8066878 290.868727,18.4690952 C291.550888,16.8281911 292.429446,13.3685794 292.638626,11.3732306 C292.767621,10.1832265 292.489876,9.58590016 291.066287,9.58590016 L289.646184,9.58590016 L289.213878,9.59984552 L288.317888,9.59984552 C287.457924,9.59984552 286.988431,9.97520816 286.747873,10.9444108 L284.757173,18.9327785 C284.515453,19.9054674 284.77228,20.2575878 285.633406,20.2575878 L285.662459,20.259912 Z" id="Fill-10"></path>
            <path d="M202.557383,4.46533634 C203.159358,2.03651927 202.887424,1.32879219 202.589922,0.431640625 L212.371431,0.431640625 L207.423152,20.2956455 C206.817691,22.7198141 207.088464,23.4287033 207.389451,24.327017 L196.637577,24.327017 C197.38133,23.4287033 198.007709,22.7198141 198.610846,20.2956455 L202.557383,4.46533634" id="Fill-11"></path>
            <path d="M215.384649,23.7102268 C211.210338,23.7102268 210.302727,21.4197012 211.111558,17.3302241 L212.887268,10.2843303 C213.496215,7.85551327 213.220794,7.06527613 212.924455,6.16580034 L222.705964,6.16580034 L219.581041,18.7096527 C219.389292,19.4940793 219.687955,20.2785058 220.646699,20.2785058 L223.892482,20.2785058 C224.644369,20.2785058 225.061568,19.788094 225.311422,18.7886764 L227.628676,9.49176898 C228.178356,7.28142923 228.038903,6.9502269 227.747212,6.16580034 L237.266083,6.16580034 L232.479338,25.3581036 C231.658886,28.6770996 229.556623,30.3598398 226.345703,30.3598398 L209.06159,30.3598398 L209.456709,26.0669928 C210.176057,26.4772189 210.959321,26.9281189 213.052288,26.9281189 L221.233566,26.9281189 C222.919793,26.9281189 223.477607,26.1378817 223.680977,25.3162675 L224.398001,22.2215595 L224.387542,22.2215595 C223.69376,23.3429989 222.900037,23.7102268 221.166164,23.7102268 L215.384649,23.7102268" id="Fill-12"></path>
            <path d="M248.558928,6.16580034 L248.253292,8.29246792 L248.264913,8.29246792 C248.716975,7.51501403 249.499077,6.16580034 251.136495,6.16580034 L259.009814,6.16580034 C261.134157,6.16580034 261.525789,6.99090087 261.655946,8.07166636 L261.676864,8.07166636 C262.001094,7.36045295 262.635607,6.16580034 264.130085,6.16580034 L270.176562,6.16580034 C273.088818,6.16580034 275.308454,6.98509031 273.805842,13.0338907 L272.142857,19.6811795 C271.538558,22.1053481 271.812817,22.8142373 272.112643,23.712551 L262.106846,23.712551 C262.850598,22.8142373 263.480464,22.1053481 264.083601,19.6811795 L266.283482,10.8665492 C266.520553,9.92058883 265.985981,9.59984552 265.515325,9.59984552 L262.600744,9.59984552 C261.924394,9.59984552 261.423523,9.97520816 261.199235,10.8665492 L259.005165,19.6811795 C258.399704,22.1053481 258.669314,22.8142373 258.967978,23.712551 L248.961019,23.712551 C249.708258,22.8142373 250.334637,22.1053481 250.94126,19.6811795 L253.137654,10.8665492 C253.286405,10.4481883 252.999363,9.59984552 252.371822,9.59984552 L249.457241,9.59984552 C248.783215,9.59984552 248.283507,9.97520816 248.056895,10.8665492 L245.861662,19.6811795 C245.252715,22.1053481 245.524649,22.8142373 245.826799,23.712551 L235.821002,23.712551 C236.567079,22.8142373 237.193458,22.1053481 237.797757,19.6811795 L240.16382,10.1994961 C240.769281,7.7718411 240.498509,7.06062768 240.197521,6.16580034 L248.558928,6.16580034" id="Fill-13"></path>
            <path d="M304.191784,10.813962 C304.797245,8.38630705 304.52531,7.67509363 304.221999,6.78026629 L314.006994,6.78026629 L310.643838,20.2956455 C310.036052,22.7198141 310.309149,23.4287033 310.607812,24.327017 L299.852452,24.327017 C300.595043,23.4287033 301.219098,22.7198141 301.825721,20.2956455 L304.191784,10.813962 Z M315.514255,0.431640625 L314.35679,5.06382476 L305.696721,5.06382476 L306.854186,0.431640625 L315.514255,0.431640625 Z" id="Fill-14"></path>
            <path d="M353.304157,11.7939157 C357.380851,11.7939157 358.412808,14.3284851 357.986312,16.479557 L357.216993,19.2419007 C356.652206,21.5103461 354.69172,23.927542 350.725427,23.927542 L334.168797,23.927542 L334.551133,19.6544509 C335.990991,20.4121489 336.71615,20.6771107 339.853856,20.6771107 L347.37273,20.6771107 C348.282665,20.6771107 348.60457,20.4528228 348.781211,19.7323125 L348.876505,19.3546257 C349.056632,18.6364396 348.84629,18.0704903 347.938679,18.0704903 L340.986917,18.0704903 C336.902088,18.0704903 335.986343,15.7660194 336.415162,13.5765977 L337.279775,10.7015291 C337.953801,7.98102152 340.634796,6.16580034 344.044437,6.16580034 L359.379686,6.16580034 L359.031052,10.5888041 C358.532505,9.71721898 356.109499,9.41971794 354.039775,9.41971794 L347.119389,9.41971794 C346.248966,9.41971794 345.853848,9.64516795 345.749258,10.0612046 L345.559833,10.8107677 C345.459891,11.2302907 345.628398,11.7939157 346.494172,11.7939157 L353.304157,11.7939157" id="Fill-15"></path>
            <path d="M170.782987,7.63490217 C172.561021,2.02305642 174.038067,0.776108707 178.558688,0.573900971 C183.071175,0.37053112 189.794001,0.398421843 193.94507,0.573900971 C197.588296,0.728462057 199.20712,2.83769793 198.216999,7.64187485 C197.241986,12.3530827 197.160638,12.7447149 195.756805,17.4977588 C194.211194,22.75516 192.483131,24.4379003 187.949727,24.5622464 C183.757984,24.6819441 177.228068,24.691241 172.570318,24.5622464 C168.778341,24.4611425 167.22692,22.3949048 168.298389,17.4977588 C169.489555,12.0660407 169.712681,11.0282734 170.782987,7.63490217 Z M188.707425,6.3740091 C188.873607,5.44083201 188.315792,4.61921782 187.367508,4.57621962 C186.065941,4.51462761 184.756239,4.50184436 183.412836,4.57621962 C182.602843,4.61921782 181.703367,4.92717788 181.210631,6.18923306 C180.617953,7.71973645 178.599362,16.1322756 178.093843,18.7168158 C177.909067,19.6372097 178.341373,20.4948494 179.437246,20.5657383 C180.752758,20.6494105 181.895116,20.6435999 183.394242,20.5657383 C184.280935,20.5157674 185.307081,19.8731187 185.622014,18.8853223 C186.300688,16.7679516 188.511028,7.47220629 188.707425,6.3740091 Z" id="Fill-16"></path>
        </g>
    </g>
</svg>